<?xml version="1.0" standalone="no"?>
<!DOCTYPE svg PUBLIC "-//W3C//DTD SVG 20010904//EN"
 "http://www.w3.org/TR/2001/REC-SVG-20010904/DTD/svg10.dtd">
<svg version="1.0" xmlns="http://www.w3.org/2000/svg"
 width="512.000000pt" height="512.000000pt" viewBox="0 0 512.000000 512.000000"
 preserveAspectRatio="xMidYMid meet">

<g transform="translate(0.000000,512.000000) scale(0.100000,-0.100000)"
fill="#000000" stroke="none">
<path d="M2326 5098 c-14 -13 -140 -231 -282 -485 -141 -255 -261 -460 -265
-457 -5 3 -9 13 -9 22 0 39 -62 146 -117 201 -102 101 -231 149 -374 138 l-77
-6 -13 32 c-24 56 -139 164 -213 197 -189 86 -403 41 -542 -113 -109 -121
-143 -276 -99 -449 6 -25 4 -28 -32 -37 -58 -16 -154 -82 -185 -127 -67 -98
-91 -206 -68 -305 33 -141 128 -236 274 -275 63 -17 921 -20 1006 -4 29 6 55
9 56 7 2 -1 -122 -226 -274 -500 l-277 -497 -356 0 c-332 0 -357 -1 -372 -18
-23 -25 -21 -68 3 -92 20 -20 33 -20 2265 -20 2232 0 2245 0 2265 20 26 26 26
64 0 90 -19 19 -33 20 -274 20 l-254 0 -211 333 -212 332 33 8 c226 58 353
125 481 254 88 89 130 149 183 259 103 214 117 472 38 698 -100 286 -332 500
-639 588 -112 32 -341 32 -460 0 -182 -49 -374 -174 -487 -318 -41 -53 -53
-63 -63 -52 -7 7 -90 135 -184 283 -95 149 -179 276 -188 283 -25 18 -49 15
-77 -10z m279 -539 c127 -199 240 -378 253 -399 l22 -37 -77 -51 -77 -51 -136
130 c-114 108 -142 129 -168 129 -24 0 -61 -26 -186 -130 l-156 -131 -75 51
c-41 28 -75 54 -75 57 0 11 434 792 440 792 3 0 109 -162 235 -360z m1090 236
c226 -43 406 -165 530 -360 136 -215 154 -511 45 -744 -63 -134 -184 -270
-309 -345 -67 -41 -192 -90 -258 -101 -23 -3 -47 -13 -54 -21 -6 -8 -15 -14
-19 -14 -11 0 -760 1174 -760 1190 0 24 89 138 158 201 179 165 433 239 667
194z m-2774 -174 c70 -33 128 -95 166 -178 19 -41 41 -77 50 -80 9 -3 55 1
102 11 69 14 97 15 141 6 135 -26 232 -117 266 -252 21 -82 12 -152 -32 -234
-19 -35 -34 -70 -34 -78 0 -30 -64 -137 -102 -171 -22 -21 -66 -49 -97 -64
l-56 -26 -453 -3 c-501 -3 -536 0 -605 52 -80 61 -111 152 -83 248 31 106 115
168 228 168 55 0 72 4 88 20 28 28 25 50 -13 122 -30 57 -32 69 -32 157 0 85
3 102 27 148 43 82 118 145 208 174 47 16 181 4 231 -20z m1635 -621 c90 -89
139 -130 155 -130 12 0 71 32 131 71 61 39 111 69 113 67 8 -8 995 -1560 995
-1564 0 -2 -252 -4 -560 -4 l-560 0 0 171 0 171 40 -32 c22 -17 42 -36 45 -41
12 -18 66 -40 85 -34 32 10 50 34 50 66 0 24 -16 43 -110 121 l-109 93 -1 95
0 94 63 -62 c48 -47 69 -62 91 -62 39 0 66 26 66 63 0 25 -19 50 -110 142
l-110 111 0 78 0 78 68 -71 c72 -76 97 -86 132 -51 41 41 29 66 -106 217 -124
141 -147 160 -182 149 -10 -3 -82 -71 -161 -150 -123 -124 -142 -148 -139
-172 4 -36 48 -69 79 -59 13 5 57 39 97 78 l72 70 0 -84 0 -85 -120 -103
c-142 -121 -159 -155 -96 -196 35 -23 55 -14 142 62 l74 64 0 -100 0 -100
-120 -91 c-143 -108 -161 -143 -95 -186 32 -21 51 -13 134 50 31 23 62 46 69
50 9 6 12 -31 12 -168 l0 -176 -330 0 -330 0 0 71 c0 80 -8 80 80 7 25 -20 52
-37 60 -38 49 -7 80 16 80 59 0 29 -25 56 -152 165 l-68 58 0 90 0 91 64 -61
c47 -45 72 -62 92 -62 37 0 64 27 64 63 0 25 -19 50 -110 142 l-110 111 0 80
1 79 56 -63 c31 -35 67 -68 80 -73 51 -19 98 33 77 87 -5 12 -64 83 -132 158
-99 110 -128 136 -150 136 -21 0 -57 -31 -174 -148 -157 -157 -170 -179 -128
-217 38 -34 67 -23 151 61 l79 79 0 -90 0 -90 -120 -103 c-126 -108 -144 -134
-117 -176 33 -50 70 -40 173 50 l64 56 0 -100 0 -100 -120 -92 c-76 -57 -122
-100 -126 -115 -12 -48 37 -92 84 -74 13 5 49 29 80 52 87 67 82 68 82 -17 l0
-76 -450 0 c-247 0 -450 2 -450 3 0 3 574 1036 816 1469 l55 97 101 -69 c56
-39 111 -70 123 -70 12 0 83 52 175 130 85 71 157 129 159 130 3 0 64 -58 137
-130z"/>
<path d="M914 2008 l-114 -111 -94 91 c-73 72 -99 92 -121 92 -23 0 -54 -26
-162 -133 -142 -143 -155 -165 -113 -207 40 -40 68 -28 175 80 l100 100 85
-84 c98 -96 119 -110 152 -97 13 5 70 57 128 115 l104 106 107 -105 c114 -113
139 -125 179 -85 42 42 30 64 -118 212 -111 111 -143 138 -166 138 -22 0 -52
-23 -142 -112z"/>
<path d="M2743 1848 c-79 -78 -137 -144 -143 -163 -5 -17 -49 -69 -98 -117
l-87 -86 -320 -5 c-458 -8 -731 -37 -869 -92 -34 -14 -68 -25 -74 -25 -6 0
-18 -10 -26 -22 -13 -18 -16 -56 -16 -205 0 -166 2 -185 21 -217 35 -60 161
-103 364 -126 55 -6 115 -13 134 -16 l34 -5 -142 -143 c-130 -132 -141 -145
-141 -180 0 -75 65 -121 132 -93 18 8 102 84 186 170 114 116 152 161 152 180
0 52 -3 52 484 49 788 -5 1242 38 1346 127 l29 26 2 205 c1 113 -2 213 -6 222
-10 25 -99 65 -181 82 -169 36 -532 66 -784 66 -66 0 -120 4 -120 8 0 18 67
72 89 72 32 0 286 250 302 297 21 66 -23 123 -95 123 -37 0 -47 -8 -173 -132z
m-508 -548 l-49 -50 -101 0 c-206 1 -673 38 -637 51 43 16 455 44 692 47 l144
2 -49 -50z m960 25 c280 -24 276 -30 -40 -56 -134 -11 -767 -29 -774 -22 -3 2
17 26 45 54 l49 51 265 -6 c146 -3 350 -13 455 -21z m-1830 -149 c96 -21 327
-43 524 -52 l163 -7 -111 -110 -110 -111 -163 12 c-186 14 -348 38 -395 57
l-33 14 0 112 0 112 28 -6 c15 -4 59 -13 97 -21z m2215 -100 l0 -114 -50 -11
c-73 -16 -283 -39 -455 -50 -225 -15 -782 -25 -929 -16 l-129 7 107 107 107
107 447 12 c433 11 688 29 802 57 106 25 100 31 100 -99z"/>
<path d="M4097 621 l-112 -110 -91 90 c-124 121 -122 121 -266 -18 -126 -124
-150 -154 -150 -191 0 -29 34 -62 65 -62 12 0 61 40 124 102 l103 102 93 -92
c124 -124 119 -124 264 20 l113 113 102 -101 c57 -56 111 -104 121 -107 26 -9
67 13 73 40 11 44 -6 69 -134 196 -167 165 -155 164 -305 18z"/>
<path d="M4633 288 l-113 -112 -93 92 c-74 74 -98 92 -122 92 -24 0 -52 -23
-162 -133 -142 -142 -155 -165 -113 -207 39 -39 65 -27 177 82 l103 102 93
-92 c124 -123 118 -124 264 20 l113 112 109 -108 c116 -114 127 -119 174 -78
38 34 23 59 -120 204 -114 115 -142 138 -167 138 -24 0 -50 -20 -143 -112z"/>
</g>
</svg>
